<svg width="1401" height="1401" viewBox="0 0 1401 1401" fill="none" xmlns="http://www.w3.org/2000/svg">
<mask id="mask0_13_29" style="mask-type:luminance" maskUnits="userSpaceOnUse" x="0" y="0" width="1337" height="1027">
<path d="M80.628 1026.69C269.995 575.159 584.088 331.353 1022.91 295.268C1025.97 294.992 1029.02 294.751 1032.08 294.545C1141.92 287.169 1253.38 325.664 1336.39 407.433C1188.67 86.6987 825.252 -73.8683 488.656 32.8797C152.058 139.629 -52.3959 480.291 11.7261 827.537C24.8631 898.672 48.428 965.524 80.628 1026.69Z" fill="white"/>
</mask>
<g mask="url(#mask0_13_29)">
<path d="M1336.39 -73.8691H-52.396V1026.69H1336.39V-73.8691Z" fill="url(#paint0_linear_13_29)"/>
</g>
<mask id="mask1_13_29" style="mask-type:luminance" maskUnits="userSpaceOnUse" x="80" y="295" width="967" height="1106">
<path d="M657.887 951.855C601.069 779.698 634.033 590.994 744.784 448.531C744.797 448.514 744.811 448.496 744.825 448.478C748.729 443.386 752.766 438.38 756.934 433.463C778.895 407.557 804.5 384.149 833.523 364.047C891.343 323.999 956.678 301.262 1022.91 295.266C584.087 331.352 269.994 575.159 80.627 1026.68C205.612 1264.08 460.698 1415.76 741.003 1399.45C851.541 1393.03 955.156 1361.1 1046.04 1309.45C863.528 1265.39 716.733 1130.15 657.887 951.855Z" fill="white"/>
</mask>
<g mask="url(#mask1_13_29)">
<path d="M1046.04 295.266H80.6279V1415.76H1046.04V295.266Z" fill="url(#paint1_linear_13_29)"/>
</g>
<mask id="mask2_13_29" style="mask-type:luminance" maskUnits="userSpaceOnUse" x="630" y="356" width="771" height="954">
<path d="M790.751 452.226C680.943 553.116 643.911 710.845 697.342 850.062C637.15 714.779 658.537 561.047 744.785 448.532C744.771 448.55 744.757 448.568 744.744 448.586C634.025 591.042 601.077 779.721 657.888 951.856C716.734 1130.16 863.529 1265.39 1046.04 1309.45C1245.01 1196.37 1382.98 988.705 1399.06 746.847C1410.14 598.14 1329.26 457.757 1195.06 392.757C1060.85 327.756 900.555 351.334 790.751 452.226Z" fill="white"/>
</mask>
<g mask="url(#mask2_13_29)">
<path d="M1410.14 327.756H601.077V1309.45H1410.14V327.756Z" fill="url(#paint2_linear_13_29)"/>
</g>
<path fill-rule="evenodd" clip-rule="evenodd" d="M553.636 155.743C841.351 78.2487 1147.76 176.774 1336.39 407.433C1188.66 86.6987 825.251 -73.8683 488.655 32.8797C171.809 133.364 -27.9471 441.115 3.18386 766.521C50.4479 472.327 265.923 233.236 553.636 155.743Z" fill="#99FFFF"/>
<path opacity="0.77" fill-rule="evenodd" clip-rule="evenodd" d="M79.8271 1026.69C224.073 730.393 480.265 503.652 791.893 396.479C804.635 384.915 818.253 374.072 832.722 364.051C890.541 324.003 955.877 301.266 1022.11 295.27C583.287 331.355 269.193 575.161 79.8271 1026.69Z" fill="#000066"/>
<path fill-rule="evenodd" clip-rule="evenodd" d="M1046.04 1309.45C854.327 1391.28 632.14 1348.68 484.289 1201.74C336.726 1055.09 292.629 833.748 372.621 641.789C252.16 748.697 152.498 879.059 80.6279 1026.69C205.613 1264.09 460.699 1415.76 741.004 1399.46C851.542 1393.03 955.157 1361.11 1046.04 1309.45Z" fill="#330099"/>
<path fill-rule="evenodd" clip-rule="evenodd" d="M690.857 607.963C884.022 513.481 1117.25 591.704 1214.39 783.546C1301.86 956.292 1249.75 1163.45 1099.44 1275.83C1269.4 1157.81 1384.46 966.42 1399.06 746.848C1410.14 598.141 1329.26 457.757 1195.06 392.757C1060.85 327.756 900.556 351.334 790.752 452.225C743.519 495.62 709.753 549.532 690.857 607.963Z" fill="#66FFCC"/>
<defs>
<linearGradient id="paint0_linear_13_29" x1="67.0174" y1="946.492" x2="1015.49" y2="171.051" gradientUnits="userSpaceOnUse">
<stop stop-color="#4361EE"/>
<stop offset="1" stop-color="#4CC9F0"/>
</linearGradient>
<linearGradient id="paint1_linear_13_29" x1="36.0339" y1="1144.77" x2="914.781" y2="662.722" gradientUnits="userSpaceOnUse">
<stop stop-color="#4361EE"/>
<stop offset="1" stop-color="#4CC9F0"/>
</linearGradient>
<linearGradient id="paint2_linear_13_29" x1="569.978" y1="1039.54" x2="1294.79" y2="671.946" gradientUnits="userSpaceOnUse">
<stop stop-color="#4361EE"/>
<stop offset="1" stop-color="#4CC9F0"/>
</linearGradient>
</defs>
</svg>
